<mxfile host="app.diagrams.net" agent="Mozilla/5.0 (X11; Linux x86_64) AppleWebKit/537.36 (KHTML, like Gecko) Chrome/133.0.0.0 Safari/537.36" version="26.0.11">
  <diagram name="Pagina-1" id="SHImMo-cX8PR3l8xb86j">
    <mxGraphModel dx="1257" dy="689" grid="1" gridSize="10" guides="1" tooltips="1" connect="1" arrows="1" fold="1" page="1" pageScale="1" pageWidth="1169" pageHeight="827" math="0" shadow="0">
      <root>
        <mxCell id="0" />
        <mxCell id="1" parent="0" />
        <mxCell id="unjvJsAtwSInByf4UnUb-1" value="&lt;font style=&quot;font-size: 18px;&quot;&gt;SQUADRA&lt;/font&gt;" style="rounded=0;whiteSpace=wrap;html=1;" vertex="1" parent="1">
          <mxGeometry x="150" y="154" width="160" height="60" as="geometry" />
        </mxCell>
        <mxCell id="unjvJsAtwSInByf4UnUb-2" value="" style="endArrow=none;html=1;rounded=0;exitX=0.067;exitY=0;exitDx=0;exitDy=0;exitPerimeter=0;" edge="1" parent="1">
          <mxGeometry width="50" height="50" relative="1" as="geometry">
            <mxPoint x="160.03999999999996" y="154.5" as="sourcePoint" />
            <mxPoint x="160" y="124.5" as="targetPoint" />
          </mxGeometry>
        </mxCell>
        <mxCell id="unjvJsAtwSInByf4UnUb-3" value="" style="ellipse;whiteSpace=wrap;html=1;aspect=fixed;fillColor=#030303;" vertex="1" parent="1">
          <mxGeometry x="155" y="114.5" width="10" height="10" as="geometry" />
        </mxCell>
        <mxCell id="unjvJsAtwSInByf4UnUb-4" value="&lt;font style=&quot;font-size: 14px;&quot;&gt;ID&lt;/font&gt;" style="text;html=1;align=center;verticalAlign=middle;resizable=0;points=[];autosize=1;strokeColor=none;fillColor=none;" vertex="1" parent="1">
          <mxGeometry x="140" y="90.5" width="40" height="30" as="geometry" />
        </mxCell>
        <mxCell id="unjvJsAtwSInByf4UnUb-5" value="" style="endArrow=none;html=1;rounded=0;exitX=0.067;exitY=0;exitDx=0;exitDy=0;exitPerimeter=0;" edge="1" parent="1">
          <mxGeometry width="50" height="50" relative="1" as="geometry">
            <mxPoint x="241" y="154" as="sourcePoint" />
            <mxPoint x="241" y="124" as="targetPoint" />
          </mxGeometry>
        </mxCell>
        <mxCell id="unjvJsAtwSInByf4UnUb-6" value="" style="ellipse;whiteSpace=wrap;html=1;aspect=fixed;" vertex="1" parent="1">
          <mxGeometry x="236" y="114" width="10" height="10" as="geometry" />
        </mxCell>
        <mxCell id="unjvJsAtwSInByf4UnUb-7" value="&lt;font style=&quot;font-size: 14px;&quot;&gt;nome&lt;/font&gt;" style="text;html=1;align=center;verticalAlign=middle;resizable=0;points=[];autosize=1;strokeColor=none;fillColor=none;" vertex="1" parent="1">
          <mxGeometry x="210" y="91" width="60" height="30" as="geometry" />
        </mxCell>
        <mxCell id="unjvJsAtwSInByf4UnUb-8" value="" style="endArrow=none;html=1;rounded=0;exitX=0.067;exitY=0;exitDx=0;exitDy=0;exitPerimeter=0;" edge="1" parent="1">
          <mxGeometry width="50" height="50" relative="1" as="geometry">
            <mxPoint x="271" y="154" as="sourcePoint" />
            <mxPoint x="271" y="124" as="targetPoint" />
          </mxGeometry>
        </mxCell>
        <mxCell id="unjvJsAtwSInByf4UnUb-9" value="" style="ellipse;whiteSpace=wrap;html=1;aspect=fixed;" vertex="1" parent="1">
          <mxGeometry x="266" y="114" width="10" height="10" as="geometry" />
        </mxCell>
        <mxCell id="unjvJsAtwSInByf4UnUb-10" value="&lt;font style=&quot;font-size: 14px;&quot;&gt;cittÃ &lt;/font&gt;" style="text;html=1;align=center;verticalAlign=middle;resizable=0;points=[];autosize=1;strokeColor=none;fillColor=none;" vertex="1" parent="1">
          <mxGeometry x="250" y="91" width="50" height="30" as="geometry" />
        </mxCell>
        <mxCell id="unjvJsAtwSInByf4UnUb-11" value="" style="endArrow=none;html=1;rounded=0;exitX=0.067;exitY=0;exitDx=0;exitDy=0;exitPerimeter=0;" edge="1" parent="1">
          <mxGeometry width="50" height="50" relative="1" as="geometry">
            <mxPoint x="301" y="154" as="sourcePoint" />
            <mxPoint x="301" y="124" as="targetPoint" />
          </mxGeometry>
        </mxCell>
        <mxCell id="unjvJsAtwSInByf4UnUb-12" value="" style="ellipse;whiteSpace=wrap;html=1;aspect=fixed;" vertex="1" parent="1">
          <mxGeometry x="296" y="114" width="10" height="10" as="geometry" />
        </mxCell>
        <mxCell id="unjvJsAtwSInByf4UnUb-13" value="&lt;font style=&quot;font-size: 14px;&quot;&gt;anno di fondazione&lt;/font&gt;" style="text;html=1;align=center;verticalAlign=middle;resizable=0;points=[];autosize=1;strokeColor=none;fillColor=none;" vertex="1" parent="1">
          <mxGeometry x="284" y="91" width="140" height="30" as="geometry" />
        </mxCell>
        <mxCell id="unjvJsAtwSInByf4UnUb-14" value="" style="endArrow=none;html=1;rounded=0;exitX=0.067;exitY=0;exitDx=0;exitDy=0;exitPerimeter=0;" edge="1" parent="1">
          <mxGeometry width="50" height="50" relative="1" as="geometry">
            <mxPoint x="199" y="154" as="sourcePoint" />
            <mxPoint x="199" y="124" as="targetPoint" />
          </mxGeometry>
        </mxCell>
        <mxCell id="unjvJsAtwSInByf4UnUb-15" value="" style="ellipse;whiteSpace=wrap;html=1;aspect=fixed;" vertex="1" parent="1">
          <mxGeometry x="194" y="114" width="10" height="10" as="geometry" />
        </mxCell>
        <mxCell id="unjvJsAtwSInByf4UnUb-16" value="&lt;font style=&quot;font-size: 14px;&quot;&gt;logo&lt;/font&gt;" style="text;html=1;align=center;verticalAlign=middle;resizable=0;points=[];autosize=1;strokeColor=none;fillColor=none;" vertex="1" parent="1">
          <mxGeometry x="173" y="91" width="50" height="30" as="geometry" />
        </mxCell>
        <mxCell id="unjvJsAtwSInByf4UnUb-17" value="&lt;font style=&quot;font-size: 18px;&quot;&gt;GIOCATORE&lt;/font&gt;" style="rounded=0;whiteSpace=wrap;html=1;" vertex="1" parent="1">
          <mxGeometry x="770" y="154.5" width="230" height="60" as="geometry" />
        </mxCell>
        <mxCell id="unjvJsAtwSInByf4UnUb-18" value="" style="endArrow=none;html=1;rounded=0;exitX=0.067;exitY=0;exitDx=0;exitDy=0;exitPerimeter=0;" edge="1" parent="1">
          <mxGeometry width="50" height="50" relative="1" as="geometry">
            <mxPoint x="780.04" y="155" as="sourcePoint" />
            <mxPoint x="780" y="125" as="targetPoint" />
          </mxGeometry>
        </mxCell>
        <mxCell id="unjvJsAtwSInByf4UnUb-19" value="" style="ellipse;whiteSpace=wrap;html=1;aspect=fixed;fillColor=#030303;" vertex="1" parent="1">
          <mxGeometry x="775" y="115" width="10" height="10" as="geometry" />
        </mxCell>
        <mxCell id="unjvJsAtwSInByf4UnUb-20" value="&lt;font style=&quot;font-size: 14px;&quot;&gt;ID&lt;/font&gt;" style="text;html=1;align=center;verticalAlign=middle;resizable=0;points=[];autosize=1;strokeColor=none;fillColor=none;" vertex="1" parent="1">
          <mxGeometry x="760" y="91" width="40" height="30" as="geometry" />
        </mxCell>
        <mxCell id="unjvJsAtwSInByf4UnUb-21" value="" style="endArrow=none;html=1;rounded=0;exitX=0.067;exitY=0;exitDx=0;exitDy=0;exitPerimeter=0;" edge="1" parent="1">
          <mxGeometry width="50" height="50" relative="1" as="geometry">
            <mxPoint x="880" y="154.5" as="sourcePoint" />
            <mxPoint x="880" y="124.5" as="targetPoint" />
          </mxGeometry>
        </mxCell>
        <mxCell id="unjvJsAtwSInByf4UnUb-22" value="" style="ellipse;whiteSpace=wrap;html=1;aspect=fixed;" vertex="1" parent="1">
          <mxGeometry x="875" y="114.5" width="10" height="10" as="geometry" />
        </mxCell>
        <mxCell id="unjvJsAtwSInByf4UnUb-23" value="&lt;font style=&quot;font-size: 14px;&quot;&gt;cognome&lt;/font&gt;" style="text;html=1;align=center;verticalAlign=middle;resizable=0;points=[];autosize=1;strokeColor=none;fillColor=none;" vertex="1" parent="1">
          <mxGeometry x="839" y="91.5" width="80" height="30" as="geometry" />
        </mxCell>
        <mxCell id="unjvJsAtwSInByf4UnUb-24" value="" style="endArrow=none;html=1;rounded=0;exitX=0.067;exitY=0;exitDx=0;exitDy=0;exitPerimeter=0;" edge="1" parent="1">
          <mxGeometry width="50" height="50" relative="1" as="geometry">
            <mxPoint x="938" y="154.5" as="sourcePoint" />
            <mxPoint x="938" y="124.5" as="targetPoint" />
          </mxGeometry>
        </mxCell>
        <mxCell id="unjvJsAtwSInByf4UnUb-25" value="" style="ellipse;whiteSpace=wrap;html=1;aspect=fixed;" vertex="1" parent="1">
          <mxGeometry x="933" y="114.5" width="10" height="10" as="geometry" />
        </mxCell>
        <mxCell id="unjvJsAtwSInByf4UnUb-26" value="&lt;font style=&quot;font-size: 14px;&quot;&gt;ruolo&lt;/font&gt;" style="text;html=1;align=center;verticalAlign=middle;resizable=0;points=[];autosize=1;strokeColor=none;fillColor=none;" vertex="1" parent="1">
          <mxGeometry x="917" y="91.5" width="50" height="30" as="geometry" />
        </mxCell>
        <mxCell id="unjvJsAtwSInByf4UnUb-27" value="" style="endArrow=none;html=1;rounded=0;exitX=0.067;exitY=0;exitDx=0;exitDy=0;exitPerimeter=0;" edge="1" parent="1">
          <mxGeometry width="50" height="50" relative="1" as="geometry">
            <mxPoint x="985" y="154.5" as="sourcePoint" />
            <mxPoint x="985" y="124.5" as="targetPoint" />
          </mxGeometry>
        </mxCell>
        <mxCell id="unjvJsAtwSInByf4UnUb-28" value="" style="ellipse;whiteSpace=wrap;html=1;aspect=fixed;" vertex="1" parent="1">
          <mxGeometry x="980" y="114.5" width="10" height="10" as="geometry" />
        </mxCell>
        <mxCell id="unjvJsAtwSInByf4UnUb-29" value="&lt;font style=&quot;font-size: 14px;&quot;&gt;data di nascita&lt;/font&gt;" style="text;html=1;align=center;verticalAlign=middle;resizable=0;points=[];autosize=1;strokeColor=none;fillColor=none;" vertex="1" parent="1">
          <mxGeometry x="956" y="91.5" width="110" height="30" as="geometry" />
        </mxCell>
        <mxCell id="unjvJsAtwSInByf4UnUb-30" value="" style="endArrow=none;html=1;rounded=0;exitX=0.067;exitY=0;exitDx=0;exitDy=0;exitPerimeter=0;" edge="1" parent="1">
          <mxGeometry width="50" height="50" relative="1" as="geometry">
            <mxPoint x="819" y="154.5" as="sourcePoint" />
            <mxPoint x="819" y="124.5" as="targetPoint" />
          </mxGeometry>
        </mxCell>
        <mxCell id="unjvJsAtwSInByf4UnUb-31" value="" style="ellipse;whiteSpace=wrap;html=1;aspect=fixed;" vertex="1" parent="1">
          <mxGeometry x="814" y="114.5" width="10" height="10" as="geometry" />
        </mxCell>
        <mxCell id="unjvJsAtwSInByf4UnUb-32" value="&lt;span style=&quot;font-size: 14px;&quot;&gt;nome&lt;/span&gt;" style="text;html=1;align=center;verticalAlign=middle;resizable=0;points=[];autosize=1;strokeColor=none;fillColor=none;" vertex="1" parent="1">
          <mxGeometry x="788" y="91.5" width="60" height="30" as="geometry" />
        </mxCell>
        <mxCell id="unjvJsAtwSInByf4UnUb-37" value="&lt;font style=&quot;font-size: 19px;&quot;&gt;APPARTIENE&lt;/font&gt;" style="rhombus;whiteSpace=wrap;html=1;" vertex="1" parent="1">
          <mxGeometry x="440" y="144" width="200" height="80" as="geometry" />
        </mxCell>
        <mxCell id="unjvJsAtwSInByf4UnUb-38" value="" style="endArrow=none;html=1;rounded=0;exitX=1;exitY=0.5;exitDx=0;exitDy=0;" edge="1" parent="1" source="unjvJsAtwSInByf4UnUb-1" target="unjvJsAtwSInByf4UnUb-37">
          <mxGeometry width="50" height="50" relative="1" as="geometry">
            <mxPoint x="590" y="140" as="sourcePoint" />
            <mxPoint x="640" y="90" as="targetPoint" />
          </mxGeometry>
        </mxCell>
        <mxCell id="unjvJsAtwSInByf4UnUb-39" value="" style="endArrow=none;html=1;rounded=0;exitX=1;exitY=0.5;exitDx=0;exitDy=0;" edge="1" parent="1" source="unjvJsAtwSInByf4UnUb-37" target="unjvJsAtwSInByf4UnUb-17">
          <mxGeometry width="50" height="50" relative="1" as="geometry">
            <mxPoint x="590" y="140" as="sourcePoint" />
            <mxPoint x="640" y="90" as="targetPoint" />
          </mxGeometry>
        </mxCell>
        <mxCell id="unjvJsAtwSInByf4UnUb-40" value="&lt;font style=&quot;font-size: 18px;&quot;&gt;(1,1)&lt;/font&gt;" style="text;html=1;align=center;verticalAlign=middle;resizable=0;points=[];autosize=1;strokeColor=none;fillColor=none;" vertex="1" parent="1">
          <mxGeometry x="317" y="151" width="60" height="40" as="geometry" />
        </mxCell>
        <mxCell id="unjvJsAtwSInByf4UnUb-41" value="&lt;font style=&quot;font-size: 18px;&quot;&gt;(1,N)&lt;/font&gt;" style="text;html=1;align=center;verticalAlign=middle;resizable=0;points=[];autosize=1;strokeColor=none;fillColor=none;" vertex="1" parent="1">
          <mxGeometry x="710" y="151" width="60" height="40" as="geometry" />
        </mxCell>
        <mxCell id="unjvJsAtwSInByf4UnUb-42" value="&lt;font style=&quot;font-size: 18px;&quot;&gt;ARBITRO&lt;/font&gt;" style="rounded=0;whiteSpace=wrap;html=1;" vertex="1" parent="1">
          <mxGeometry x="770" y="433.5" width="230" height="60" as="geometry" />
        </mxCell>
        <mxCell id="unjvJsAtwSInByf4UnUb-43" value="" style="endArrow=none;html=1;rounded=0;exitX=0.067;exitY=0;exitDx=0;exitDy=0;exitPerimeter=0;" edge="1" parent="1">
          <mxGeometry width="50" height="50" relative="1" as="geometry">
            <mxPoint x="780.04" y="434" as="sourcePoint" />
            <mxPoint x="780" y="404" as="targetPoint" />
          </mxGeometry>
        </mxCell>
        <mxCell id="unjvJsAtwSInByf4UnUb-44" value="" style="ellipse;whiteSpace=wrap;html=1;aspect=fixed;fillColor=#030303;" vertex="1" parent="1">
          <mxGeometry x="775" y="394" width="10" height="10" as="geometry" />
        </mxCell>
        <mxCell id="unjvJsAtwSInByf4UnUb-45" value="&lt;font style=&quot;font-size: 14px;&quot;&gt;ID&lt;/font&gt;" style="text;html=1;align=center;verticalAlign=middle;resizable=0;points=[];autosize=1;strokeColor=none;fillColor=none;" vertex="1" parent="1">
          <mxGeometry x="760" y="370" width="40" height="30" as="geometry" />
        </mxCell>
        <mxCell id="unjvJsAtwSInByf4UnUb-46" value="" style="endArrow=none;html=1;rounded=0;exitX=0.067;exitY=0;exitDx=0;exitDy=0;exitPerimeter=0;" edge="1" parent="1">
          <mxGeometry width="50" height="50" relative="1" as="geometry">
            <mxPoint x="875" y="432.5" as="sourcePoint" />
            <mxPoint x="875" y="402.5" as="targetPoint" />
          </mxGeometry>
        </mxCell>
        <mxCell id="unjvJsAtwSInByf4UnUb-47" value="" style="ellipse;whiteSpace=wrap;html=1;aspect=fixed;" vertex="1" parent="1">
          <mxGeometry x="870" y="392.5" width="10" height="10" as="geometry" />
        </mxCell>
        <mxCell id="unjvJsAtwSInByf4UnUb-48" value="&lt;font style=&quot;font-size: 14px;&quot;&gt;cognome&lt;/font&gt;" style="text;html=1;align=center;verticalAlign=middle;resizable=0;points=[];autosize=1;strokeColor=none;fillColor=none;" vertex="1" parent="1">
          <mxGeometry x="834" y="369.5" width="80" height="30" as="geometry" />
        </mxCell>
        <mxCell id="unjvJsAtwSInByf4UnUb-49" value="" style="endArrow=none;html=1;rounded=0;exitX=0.067;exitY=0;exitDx=0;exitDy=0;exitPerimeter=0;" edge="1" parent="1">
          <mxGeometry width="50" height="50" relative="1" as="geometry">
            <mxPoint x="1000" y="432.5" as="sourcePoint" />
            <mxPoint x="1000" y="402.5" as="targetPoint" />
          </mxGeometry>
        </mxCell>
        <mxCell id="unjvJsAtwSInByf4UnUb-50" value="" style="ellipse;whiteSpace=wrap;html=1;aspect=fixed;" vertex="1" parent="1">
          <mxGeometry x="995" y="392.5" width="10" height="10" as="geometry" />
        </mxCell>
        <mxCell id="unjvJsAtwSInByf4UnUb-51" value="&lt;span style=&quot;font-size: 14px;&quot;&gt;anni di esperienza&lt;/span&gt;" style="text;html=1;align=center;verticalAlign=middle;resizable=0;points=[];autosize=1;strokeColor=none;fillColor=none;" vertex="1" parent="1">
          <mxGeometry x="966" y="369.5" width="140" height="30" as="geometry" />
        </mxCell>
        <mxCell id="unjvJsAtwSInByf4UnUb-55" value="" style="endArrow=none;html=1;rounded=0;exitX=0.067;exitY=0;exitDx=0;exitDy=0;exitPerimeter=0;" edge="1" parent="1">
          <mxGeometry width="50" height="50" relative="1" as="geometry">
            <mxPoint x="819" y="433.5" as="sourcePoint" />
            <mxPoint x="819" y="403.5" as="targetPoint" />
          </mxGeometry>
        </mxCell>
        <mxCell id="unjvJsAtwSInByf4UnUb-56" value="" style="ellipse;whiteSpace=wrap;html=1;aspect=fixed;" vertex="1" parent="1">
          <mxGeometry x="814" y="393.5" width="10" height="10" as="geometry" />
        </mxCell>
        <mxCell id="unjvJsAtwSInByf4UnUb-57" value="&lt;span style=&quot;font-size: 14px;&quot;&gt;nome&lt;/span&gt;" style="text;html=1;align=center;verticalAlign=middle;resizable=0;points=[];autosize=1;strokeColor=none;fillColor=none;" vertex="1" parent="1">
          <mxGeometry x="788" y="370.5" width="60" height="30" as="geometry" />
        </mxCell>
        <mxCell id="unjvJsAtwSInByf4UnUb-58" value="" style="endArrow=none;html=1;rounded=0;exitX=0.067;exitY=0;exitDx=0;exitDy=0;exitPerimeter=0;" edge="1" parent="1">
          <mxGeometry width="50" height="50" relative="1" as="geometry">
            <mxPoint x="943" y="433" as="sourcePoint" />
            <mxPoint x="943" y="403" as="targetPoint" />
          </mxGeometry>
        </mxCell>
        <mxCell id="unjvJsAtwSInByf4UnUb-59" value="" style="ellipse;whiteSpace=wrap;html=1;aspect=fixed;" vertex="1" parent="1">
          <mxGeometry x="938" y="393" width="10" height="10" as="geometry" />
        </mxCell>
        <mxCell id="unjvJsAtwSInByf4UnUb-60" value="&lt;font style=&quot;font-size: 14px;&quot;&gt;punteggio&lt;/font&gt;" style="text;html=1;align=center;verticalAlign=middle;resizable=0;points=[];autosize=1;strokeColor=none;fillColor=none;" vertex="1" parent="1">
          <mxGeometry x="897" y="370" width="90" height="30" as="geometry" />
        </mxCell>
        <mxCell id="unjvJsAtwSInByf4UnUb-61" value="&lt;font style=&quot;font-size: 18px;&quot;&gt;PARTITA&lt;/font&gt;" style="rounded=0;whiteSpace=wrap;html=1;" vertex="1" parent="1">
          <mxGeometry x="150" y="433.5" width="160" height="60" as="geometry" />
        </mxCell>
        <mxCell id="unjvJsAtwSInByf4UnUb-65" value="" style="endArrow=none;html=1;rounded=0;exitX=0.067;exitY=0;exitDx=0;exitDy=0;exitPerimeter=0;" edge="1" parent="1">
          <mxGeometry width="50" height="50" relative="1" as="geometry">
            <mxPoint x="238" y="494" as="sourcePoint" />
            <mxPoint x="238" y="524" as="targetPoint" />
          </mxGeometry>
        </mxCell>
        <mxCell id="unjvJsAtwSInByf4UnUb-66" value="" style="ellipse;whiteSpace=wrap;html=1;aspect=fixed;rotation=-180;" vertex="1" parent="1">
          <mxGeometry x="233" y="524" width="10" height="10" as="geometry" />
        </mxCell>
        <mxCell id="unjvJsAtwSInByf4UnUb-68" value="" style="endArrow=none;html=1;rounded=0;exitX=0.067;exitY=0;exitDx=0;exitDy=0;exitPerimeter=0;" edge="1" parent="1">
          <mxGeometry width="50" height="50" relative="1" as="geometry">
            <mxPoint x="198" y="494" as="sourcePoint" />
            <mxPoint x="198" y="524" as="targetPoint" />
          </mxGeometry>
        </mxCell>
        <mxCell id="unjvJsAtwSInByf4UnUb-69" value="" style="ellipse;whiteSpace=wrap;html=1;aspect=fixed;rotation=-180;" vertex="1" parent="1">
          <mxGeometry x="193" y="524" width="10" height="10" as="geometry" />
        </mxCell>
        <mxCell id="unjvJsAtwSInByf4UnUb-71" value="" style="endArrow=none;html=1;rounded=0;exitX=0.067;exitY=0;exitDx=0;exitDy=0;exitPerimeter=0;" edge="1" parent="1">
          <mxGeometry width="50" height="50" relative="1" as="geometry">
            <mxPoint x="162" y="493" as="sourcePoint" />
            <mxPoint x="162" y="523" as="targetPoint" />
          </mxGeometry>
        </mxCell>
        <mxCell id="unjvJsAtwSInByf4UnUb-72" value="" style="ellipse;whiteSpace=wrap;html=1;aspect=fixed;rotation=-180;fillColor=#000000;" vertex="1" parent="1">
          <mxGeometry x="157" y="524" width="10" height="10" as="geometry" />
        </mxCell>
        <mxCell id="unjvJsAtwSInByf4UnUb-78" value="&lt;font style=&quot;font-size: 14px;&quot;&gt;ID&lt;/font&gt;" style="text;html=1;align=center;verticalAlign=middle;resizable=0;points=[];autosize=1;strokeColor=none;fillColor=none;" vertex="1" parent="1">
          <mxGeometry x="142" y="529" width="40" height="30" as="geometry" />
        </mxCell>
        <mxCell id="unjvJsAtwSInByf4UnUb-79" value="&lt;font style=&quot;font-size: 14px;&quot;&gt;data&lt;/font&gt;" style="text;html=1;align=center;verticalAlign=middle;resizable=0;points=[];autosize=1;strokeColor=none;fillColor=none;" vertex="1" parent="1">
          <mxGeometry x="172" y="529" width="50" height="30" as="geometry" />
        </mxCell>
        <mxCell id="unjvJsAtwSInByf4UnUb-80" value="&lt;font style=&quot;font-size: 14px;&quot;&gt;orario&lt;/font&gt;" style="text;html=1;align=center;verticalAlign=middle;resizable=0;points=[];autosize=1;strokeColor=none;fillColor=none;" vertex="1" parent="1">
          <mxGeometry x="209" y="529" width="60" height="30" as="geometry" />
        </mxCell>
        <mxCell id="unjvJsAtwSInByf4UnUb-81" value="&lt;font style=&quot;font-size: 18px;&quot;&gt;GIOCA&lt;/font&gt;" style="rhombus;whiteSpace=wrap;html=1;" vertex="1" parent="1">
          <mxGeometry x="159.5" y="290" width="141" height="60" as="geometry" />
        </mxCell>
        <mxCell id="unjvJsAtwSInByf4UnUb-82" value="&lt;font style=&quot;font-size: 18px;&quot;&gt;ARBITRA&lt;/font&gt;" style="rhombus;whiteSpace=wrap;html=1;" vertex="1" parent="1">
          <mxGeometry x="469.5" y="433.5" width="141" height="60" as="geometry" />
        </mxCell>
        <mxCell id="unjvJsAtwSInByf4UnUb-83" value="" style="endArrow=none;html=1;rounded=0;exitX=0.5;exitY=1;exitDx=0;exitDy=0;entryX=0.5;entryY=0;entryDx=0;entryDy=0;" edge="1" parent="1" source="unjvJsAtwSInByf4UnUb-1" target="unjvJsAtwSInByf4UnUb-81">
          <mxGeometry width="50" height="50" relative="1" as="geometry">
            <mxPoint x="450" y="380" as="sourcePoint" />
            <mxPoint x="500" y="330" as="targetPoint" />
          </mxGeometry>
        </mxCell>
        <mxCell id="unjvJsAtwSInByf4UnUb-84" value="" style="endArrow=none;html=1;rounded=0;exitX=0.5;exitY=1;exitDx=0;exitDy=0;entryX=0.5;entryY=0;entryDx=0;entryDy=0;" edge="1" parent="1" source="unjvJsAtwSInByf4UnUb-81" target="unjvJsAtwSInByf4UnUb-61">
          <mxGeometry width="50" height="50" relative="1" as="geometry">
            <mxPoint x="450" y="380" as="sourcePoint" />
            <mxPoint x="500" y="330" as="targetPoint" />
          </mxGeometry>
        </mxCell>
        <mxCell id="unjvJsAtwSInByf4UnUb-85" value="" style="endArrow=none;html=1;rounded=0;exitX=1;exitY=0.5;exitDx=0;exitDy=0;entryX=0;entryY=0.5;entryDx=0;entryDy=0;" edge="1" parent="1" source="unjvJsAtwSInByf4UnUb-61" target="unjvJsAtwSInByf4UnUb-82">
          <mxGeometry width="50" height="50" relative="1" as="geometry">
            <mxPoint x="450" y="380" as="sourcePoint" />
            <mxPoint x="500" y="330" as="targetPoint" />
          </mxGeometry>
        </mxCell>
        <mxCell id="unjvJsAtwSInByf4UnUb-86" value="" style="endArrow=none;html=1;rounded=0;exitX=1;exitY=0.5;exitDx=0;exitDy=0;entryX=0;entryY=0.5;entryDx=0;entryDy=0;" edge="1" parent="1" source="unjvJsAtwSInByf4UnUb-82" target="unjvJsAtwSInByf4UnUb-42">
          <mxGeometry width="50" height="50" relative="1" as="geometry">
            <mxPoint x="450" y="380" as="sourcePoint" />
            <mxPoint x="500" y="330" as="targetPoint" />
          </mxGeometry>
        </mxCell>
        <mxCell id="unjvJsAtwSInByf4UnUb-88" value="" style="endArrow=none;html=1;rounded=0;exitX=0.067;exitY=0;exitDx=0;exitDy=0;exitPerimeter=0;" edge="1" parent="1">
          <mxGeometry width="50" height="50" relative="1" as="geometry">
            <mxPoint x="289" y="494" as="sourcePoint" />
            <mxPoint x="289" y="524" as="targetPoint" />
          </mxGeometry>
        </mxCell>
        <mxCell id="unjvJsAtwSInByf4UnUb-89" value="" style="ellipse;whiteSpace=wrap;html=1;aspect=fixed;rotation=-180;" vertex="1" parent="1">
          <mxGeometry x="284" y="524" width="10" height="10" as="geometry" />
        </mxCell>
        <mxCell id="unjvJsAtwSInByf4UnUb-90" value="&lt;font style=&quot;font-size: 14px;&quot;&gt;risultato&lt;/font&gt;" style="text;html=1;align=center;verticalAlign=middle;resizable=0;points=[];autosize=1;strokeColor=none;fillColor=none;" vertex="1" parent="1">
          <mxGeometry x="255" y="529" width="70" height="30" as="geometry" />
        </mxCell>
        <mxCell id="unjvJsAtwSInByf4UnUb-91" value="&lt;font style=&quot;font-size: 18px;&quot;&gt;(2,2)&lt;/font&gt;" style="text;html=1;align=center;verticalAlign=middle;resizable=0;points=[];autosize=1;strokeColor=none;fillColor=none;" vertex="1" parent="1">
          <mxGeometry x="173" y="214.5" width="60" height="40" as="geometry" />
        </mxCell>
        <mxCell id="unjvJsAtwSInByf4UnUb-92" value="&lt;font style=&quot;font-size: 18px;&quot;&gt;(1,N)&lt;/font&gt;" style="text;html=1;align=center;verticalAlign=middle;resizable=0;points=[];autosize=1;strokeColor=none;fillColor=none;" vertex="1" parent="1">
          <mxGeometry x="169" y="392.5" width="60" height="40" as="geometry" />
        </mxCell>
        <mxCell id="unjvJsAtwSInByf4UnUb-93" value="&lt;font style=&quot;font-size: 18px;&quot;&gt;(1,N)&lt;/font&gt;" style="text;html=1;align=center;verticalAlign=middle;resizable=0;points=[];autosize=1;strokeColor=none;fillColor=none;" vertex="1" parent="1">
          <mxGeometry x="324" y="420" width="60" height="40" as="geometry" />
        </mxCell>
        <mxCell id="unjvJsAtwSInByf4UnUb-94" value="&lt;font style=&quot;font-size: 18px;&quot;&gt;(1,1)&lt;/font&gt;" style="text;html=1;align=center;verticalAlign=middle;resizable=0;points=[];autosize=1;strokeColor=none;fillColor=none;" vertex="1" parent="1">
          <mxGeometry x="700" y="420" width="60" height="40" as="geometry" />
        </mxCell>
        <mxCell id="unjvJsAtwSInByf4UnUb-96" value="&lt;font style=&quot;font-size: 18px;&quot;&gt;SEGNA&lt;/font&gt;" style="rhombus;whiteSpace=wrap;html=1;" vertex="1" parent="1">
          <mxGeometry x="469.5" y="290" width="141" height="60" as="geometry" />
        </mxCell>
        <mxCell id="unjvJsAtwSInByf4UnUb-97" value="" style="endArrow=none;html=1;rounded=0;exitX=0.386;exitY=0.989;exitDx=0;exitDy=0;exitPerimeter=0;entryX=1;entryY=0.5;entryDx=0;entryDy=0;" edge="1" parent="1" source="unjvJsAtwSInByf4UnUb-17" target="unjvJsAtwSInByf4UnUb-96">
          <mxGeometry width="50" height="50" relative="1" as="geometry">
            <mxPoint x="390" y="340" as="sourcePoint" />
            <mxPoint x="440" y="290" as="targetPoint" />
            <Array as="points">
              <mxPoint x="859" y="320" />
            </Array>
          </mxGeometry>
        </mxCell>
        <mxCell id="unjvJsAtwSInByf4UnUb-98" value="" style="endArrow=none;html=1;rounded=0;exitX=0.75;exitY=0;exitDx=0;exitDy=0;entryX=0;entryY=0.5;entryDx=0;entryDy=0;" edge="1" parent="1" source="unjvJsAtwSInByf4UnUb-61" target="unjvJsAtwSInByf4UnUb-96">
          <mxGeometry width="50" height="50" relative="1" as="geometry">
            <mxPoint x="390" y="340" as="sourcePoint" />
            <mxPoint x="440" y="290" as="targetPoint" />
            <Array as="points">
              <mxPoint x="340" y="370" />
            </Array>
          </mxGeometry>
        </mxCell>
        <mxCell id="unjvJsAtwSInByf4UnUb-99" value="&lt;font style=&quot;font-size: 18px;&quot;&gt;(0,N)&lt;/font&gt;" style="text;html=1;align=center;verticalAlign=middle;resizable=0;points=[];autosize=1;strokeColor=none;fillColor=none;" vertex="1" parent="1">
          <mxGeometry x="364" y="300" width="60" height="40" as="geometry" />
        </mxCell>
        <mxCell id="unjvJsAtwSInByf4UnUb-100" value="&lt;font style=&quot;font-size: 18px;&quot;&gt;(0,N)&lt;/font&gt;" style="text;html=1;align=center;verticalAlign=middle;resizable=0;points=[];autosize=1;strokeColor=none;fillColor=none;" vertex="1" parent="1">
          <mxGeometry x="859" y="224" width="60" height="40" as="geometry" />
        </mxCell>
        <mxCell id="unjvJsAtwSInByf4UnUb-102" value="" style="endArrow=none;html=1;rounded=0;exitX=0.067;exitY=0;exitDx=0;exitDy=0;exitPerimeter=0;" edge="1" parent="1">
          <mxGeometry width="50" height="50" relative="1" as="geometry">
            <mxPoint x="541" y="290" as="sourcePoint" />
            <mxPoint x="541" y="260" as="targetPoint" />
          </mxGeometry>
        </mxCell>
        <mxCell id="unjvJsAtwSInByf4UnUb-103" value="" style="ellipse;whiteSpace=wrap;html=1;aspect=fixed;" vertex="1" parent="1">
          <mxGeometry x="536" y="250" width="10" height="10" as="geometry" />
        </mxCell>
        <mxCell id="unjvJsAtwSInByf4UnUb-104" value="&lt;span style=&quot;font-size: 14px;&quot;&gt;numero di gol&lt;/span&gt;" style="text;html=1;align=center;verticalAlign=middle;resizable=0;points=[];autosize=1;strokeColor=none;fillColor=none;" vertex="1" parent="1">
          <mxGeometry x="485" y="227" width="110" height="30" as="geometry" />
        </mxCell>
        <mxCell id="unjvJsAtwSInByf4UnUb-105" value="&lt;font style=&quot;font-size: 14px;&quot;&gt;(0,1)&lt;/font&gt;" style="text;html=1;align=center;verticalAlign=middle;resizable=0;points=[];autosize=1;strokeColor=none;fillColor=none;" vertex="1" parent="1">
          <mxGeometry x="979" y="124.5" width="50" height="30" as="geometry" />
        </mxCell>
        <mxCell id="unjvJsAtwSInByf4UnUb-106" value="&lt;font style=&quot;font-size: 14px;&quot;&gt;(0,1)&lt;/font&gt;" style="text;html=1;align=center;verticalAlign=middle;resizable=0;points=[];autosize=1;strokeColor=none;fillColor=none;" vertex="1" parent="1">
          <mxGeometry x="990" y="404" width="50" height="30" as="geometry" />
        </mxCell>
        <mxCell id="unjvJsAtwSInByf4UnUb-107" value="&lt;font style=&quot;font-size: 14px;&quot;&gt;(0,1)&lt;/font&gt;" style="text;html=1;align=center;verticalAlign=middle;resizable=0;points=[];autosize=1;strokeColor=none;fillColor=none;" vertex="1" parent="1">
          <mxGeometry x="296" y="121.5" width="50" height="30" as="geometry" />
        </mxCell>
      </root>
    </mxGraphModel>
  </diagram>
</mxfile>
